<?xml version="1.0" encoding="UTF-8" standalone="no"?>
<svg
   width="39.684128"
   height="39.684132"
   viewBox="0 0 10.499759 10.49976"
   version="1.1"
   id="svg5"
   xmlns="http://www.w3.org/2000/svg"
   xmlns:svg="http://www.w3.org/2000/svg"
   xmlns:rdf="http://www.w3.org/1999/02/22-rdf-syntax-ns#"
   xmlns:cc="http://creativecommons.org/ns#"
   xmlns:dc="http://purl.org/dc/elements/1.1/">
  <title
     id="title4560">darkMode</title>
  <defs
     id="defs2" />
  <g
     id="Darkmode-icon"
     transform="matrix(-1,0,0,1,11.599879,-1.1001196)">
    <circle
       style="fill:none;stroke:#000000;stroke-width:0.347133;stroke-linecap:round;stroke-linejoin:round;stroke-dasharray:none"
       id="DarkMode-cicle"
       cx="-6.3499999"
       cy="6.3499999"
       r="5.076313"
       transform="scale(-1,1)" />
    <path
       style="fill:#000000;fill-opacity:1;stroke:#000000;stroke-width:0.347133;stroke-linecap:round;stroke-linejoin:round;stroke-dasharray:none"
       id="DarkMode-Night"
       d="m -6.375364,1.2737498 a 5.076313,5.076313 0 0 1 4.4156246,2.5278056 5.076313,5.076313 0 0 1 0.00516,5.0879776 5.076313,5.076313 0 0 1 -4.4104881,2.536757 l 0.015067,-5.0762906 z"
       transform="scale(-1,1)" />
    <path
       id="Sol"
       style="color:#000000;fill:#ff0000;stroke-linecap:round;stroke-linejoin:round;-inkscape-stroke:none"
       d="m -9.046993,4.5971354 c -0.00258,-9.24e-5 -0.00513,1.98e-4 -0.00775,5.168e-4 -0.020637,0.00225 -0.037661,0.017117 -0.042891,0.037207 L -9.2635173,5.2673787 -9.7932007,4.880839 c -0.037881,-0.027982 -0.089815,0.00711 -0.078031,0.05271 l 0.1488281,0.6387207 -0.6506064,-0.095601 c -0.0456,-0.00637 -0.07489,0.047182 -0.04496,0.082166 l 0.4258145,0.4960938 -0.6170175,0.2165242 c -0.04383,0.015196 -0.04521,0.076483 -0.0021,0.093534 l 0.607198,0.2423624 -0.44545,0.4785238 c -0.03142,0.033543 -0.0044,0.088393 0.04134,0.084233 l 0.6521567,-0.06873 -0.1736328,0.6309693 c -0.012263,0.044737 0.037498,0.0807 0.075964,0.054777 l 0.5451864,-0.3632853 0.1405598,0.6407877 c 0.010449,0.04385 0.068693,0.052338 0.091467,0.013436 l 0.3147095,-0.5761922 0.4201294,0.5022949 c 0.029271,0.038615 0.09041,0.016922 0.0894,-0.031523 l 0.00982,-0.6562907 0.6056478,0.2480469 c 0.042852,0.018431 0.085513,-0.026518 0.064596,-0.068213 l -0.2950725,-0.5860108 0.6521566,-0.060461 c 0.044777,-0.00565 0.060082,-0.063115 0.023771,-0.089917 L -7.7266602,6.3789388 -7.1757894,6.0197876 c 0.035839,-0.025503 0.023555,-0.081597 -0.019637,-0.089917 L -7.845516,5.8399536 -7.5256388,5.2673787 c 0.023954,-0.040585 -0.016309,-0.088307 -0.060461,-0.07183 l -0.6170166,0.2242757 0.01757,-0.6562907 c 0.00248,-0.047649 -0.056784,-0.071354 -0.08785,-0.03514 L -8.7147135,5.2131185 -9.0041016,4.6250407 c -0.00826,-0.016576 -0.024796,-0.027259 -0.042891,-0.027905 z m 0.013953,0.1917196 0.2614828,0.5333008 c 0.01548,0.031852 0.058386,0.038129 0.082166,0.011885 l 0.4004924,-0.4397664 -0.01602,0.5958293 c -0.00112,0.035064 0.033528,0.060617 0.066663,0.049093 l 0.5586222,-0.2030884 -0.2888713,0.5193481 c -0.017484,0.030898 0.00148,0.069864 0.03669,0.074414 l 0.5880778,0.080099 -0.4981608,0.3240112 c -0.030472,0.019703 -0.030472,0.06453 0,0.084233 l 0.4847249,0.3436483 -0.5937622,0.056327 c -0.034663,0.00388 -0.055015,0.041227 -0.039274,0.072347 l 0.267684,0.5312337 -0.5508708,-0.2263428 c -0.032958,-0.013006 -0.068468,0.011078 -0.068213,0.046509 L -8.349359,7.835698 -8.7322813,7.3809454 c -0.022519,-0.026878 -0.065123,-0.022893 -0.082166,0.00775 L -9.099703,7.9101115 -9.2263102,7.3303019 c -0.00745,-0.03421 -0.047152,-0.050646 -0.076481,-0.031523 l -0.4960938,0.3322795 0.1581299,-0.574642 c 0.00878,-0.033467 -0.018244,-0.065549 -0.05271,-0.062528 l -0.5916949,0.062528 0.4061765,-0.4351155 c 0.023559,-0.025549 0.014524,-0.066766 -0.01757,-0.080099 L -10.448975,6.3205444 -9.8888021,6.1252075 c 0.033521,-0.011532 0.044951,-0.053337 0.021704,-0.080099 l -0.3870559,-0.4511352 0.5880772,0.08785 c 0.034222,0.00405 0.062277,-0.027343 0.054777,-0.060978 L -9.7441081,5.041036 -9.2635173,5.3924357 c 0.028387,0.021056 0.068971,0.00677 0.078031,-0.027388 z m 0.1343588,0.5761922 c -0.5432462,-1e-7 -0.9839193,0.441374 -0.9839193,0.984436 0,0.5430621 0.4406731,0.9844361 0.9839193,0.9844361 0.543246,-10e-8 0.984436,-0.4413741 0.984436,-0.9844361 0,-0.543062 -0.44119,-0.984436 -0.984436,-0.984436 z m 0,0.099735 c 0.4892237,1e-7 0.8852172,0.3957039 0.8852172,0.8847005 0,0.4889965 -0.3959935,0.8847006 -0.8852172,0.8847006 -0.4892238,0 -0.8847006,-0.395704 -0.8847006,-0.8847006 0,-0.4889966 0.3954768,-0.8847005 0.8847006,-0.8847005 z"
       transform="scale(-1,1)" />
    <circle
       style="fill:#b6b6b6;fill-opacity:1;stroke:#ffffff;stroke-width:0.0676409;stroke-linecap:round;stroke-linejoin:round;stroke-dasharray:none;stroke-opacity:1"
       id="Lua"
       transform="scale(-1,1)"
       cx="-3.8245788"
       cy="6.3499994"
       r="1.4434797" />
  </g>
</svg>
